<mxfile host="drawio-plugin" modified="2021-06-10T11:45:17.321Z" agent="5.0 (X11; Linux x86_64) AppleWebKit/537.36 (KHTML, like Gecko) Chrome/87.0.4280.141 Safari/537.36" etag="Sv57RjUm-Nu9vHls2Hgn" version="14.6.6" type="embed"><diagram name="Page-1" id="a7904f86-f2b4-8e86-fa97-74104820619b"><mxGraphModel dx="822" dy="352" grid="1" gridSize="10" guides="1" tooltips="1" connect="1" arrows="1" fold="1" page="1" pageScale="1" pageWidth="1100" pageHeight="850" background="none" math="0" shadow="0"><root><mxCell id="0"/><mxCell id="1" parent="0"/><mxCell id="hT-J2cGNkWbNZqGw8i-Q-1" value="customer" style="shape=table;startSize=30;container=1;collapsible=1;childLayout=tableLayout;fixedRows=1;rowLines=0;fontStyle=1;align=center;resizeLast=1;" parent="1" vertex="1"><mxGeometry x="40" y="200" width="230" height="200" as="geometry"/></mxCell><mxCell id="hT-J2cGNkWbNZqGw8i-Q-2" value="" style="shape=partialRectangle;collapsible=0;dropTarget=0;pointerEvents=0;fillColor=none;top=0;left=0;bottom=1;right=0;points=[[0,0.5],[1,0.5]];portConstraint=eastwest;" parent="hT-J2cGNkWbNZqGw8i-Q-1" vertex="1"><mxGeometry y="30" width="230" height="30" as="geometry"/></mxCell><mxCell id="hT-J2cGNkWbNZqGw8i-Q-3" value="PK" style="shape=partialRectangle;connectable=0;fillColor=none;top=0;left=0;bottom=0;right=0;fontStyle=1;overflow=hidden;" parent="hT-J2cGNkWbNZqGw8i-Q-2" vertex="1"><mxGeometry width="30" height="30" as="geometry"/></mxCell><mxCell id="hT-J2cGNkWbNZqGw8i-Q-4" value="customer_id" style="shape=partialRectangle;connectable=0;fillColor=none;top=0;left=0;bottom=0;right=0;align=left;spacingLeft=6;fontStyle=5;overflow=hidden;" parent="hT-J2cGNkWbNZqGw8i-Q-2" vertex="1"><mxGeometry x="30" width="200" height="30" as="geometry"/></mxCell><mxCell id="hT-J2cGNkWbNZqGw8i-Q-5" value="" style="shape=partialRectangle;collapsible=0;dropTarget=0;pointerEvents=0;fillColor=none;top=0;left=0;bottom=0;right=0;points=[[0,0.5],[1,0.5]];portConstraint=eastwest;" parent="hT-J2cGNkWbNZqGw8i-Q-1" vertex="1"><mxGeometry y="60" width="230" height="30" as="geometry"/></mxCell><mxCell id="hT-J2cGNkWbNZqGw8i-Q-6" value="" style="shape=partialRectangle;connectable=0;fillColor=none;top=0;left=0;bottom=0;right=0;editable=1;overflow=hidden;" parent="hT-J2cGNkWbNZqGw8i-Q-5" vertex="1"><mxGeometry width="30" height="30" as="geometry"/></mxCell><mxCell id="hT-J2cGNkWbNZqGw8i-Q-7" value="first_name  varchar(50)" style="shape=partialRectangle;connectable=0;fillColor=none;top=0;left=0;bottom=0;right=0;align=left;spacingLeft=6;overflow=hidden;" parent="hT-J2cGNkWbNZqGw8i-Q-5" vertex="1"><mxGeometry x="30" width="200" height="30" as="geometry"/></mxCell><mxCell id="hT-J2cGNkWbNZqGw8i-Q-8" value="" style="shape=partialRectangle;collapsible=0;dropTarget=0;pointerEvents=0;fillColor=none;top=0;left=0;bottom=0;right=0;points=[[0,0.5],[1,0.5]];portConstraint=eastwest;" parent="hT-J2cGNkWbNZqGw8i-Q-1" vertex="1"><mxGeometry y="90" width="230" height="30" as="geometry"/></mxCell><mxCell id="hT-J2cGNkWbNZqGw8i-Q-9" value="" style="shape=partialRectangle;connectable=0;fillColor=none;top=0;left=0;bottom=0;right=0;editable=1;overflow=hidden;" parent="hT-J2cGNkWbNZqGw8i-Q-8" vertex="1"><mxGeometry width="30" height="30" as="geometry"/></mxCell><mxCell id="hT-J2cGNkWbNZqGw8i-Q-10" value="last_name  varchar(50)" style="shape=partialRectangle;connectable=0;fillColor=none;top=0;left=0;bottom=0;right=0;align=left;spacingLeft=6;overflow=hidden;" parent="hT-J2cGNkWbNZqGw8i-Q-8" vertex="1"><mxGeometry x="30" width="200" height="30" as="geometry"/></mxCell><mxCell id="hT-J2cGNkWbNZqGw8i-Q-11" value="" style="shape=partialRectangle;collapsible=0;dropTarget=0;pointerEvents=0;fillColor=none;top=0;left=0;bottom=0;right=0;points=[[0,0.5],[1,0.5]];portConstraint=eastwest;" parent="hT-J2cGNkWbNZqGw8i-Q-1" vertex="1"><mxGeometry y="120" width="230" height="30" as="geometry"/></mxCell><mxCell id="hT-J2cGNkWbNZqGw8i-Q-12" value="FK" style="shape=partialRectangle;connectable=0;fillColor=none;top=0;left=0;bottom=0;right=0;editable=1;overflow=hidden;" parent="hT-J2cGNkWbNZqGw8i-Q-11" vertex="1"><mxGeometry width="30" height="30" as="geometry"/></mxCell><mxCell id="hT-J2cGNkWbNZqGw8i-Q-13" value="address_id int " style="shape=partialRectangle;connectable=0;fillColor=none;top=0;left=0;bottom=0;right=0;align=left;spacingLeft=6;overflow=hidden;" parent="hT-J2cGNkWbNZqGw8i-Q-11" vertex="1"><mxGeometry x="30" width="200" height="30" as="geometry"/></mxCell><mxCell id="hT-J2cGNkWbNZqGw8i-Q-19" value="branch" style="shape=table;startSize=30;container=1;collapsible=1;childLayout=tableLayout;fixedRows=1;rowLines=0;fontStyle=1;align=center;resizeLast=1;" parent="1" vertex="1"><mxGeometry x="840" y="323" width="200" height="160" as="geometry"/></mxCell><mxCell id="hT-J2cGNkWbNZqGw8i-Q-20" value="" style="shape=partialRectangle;collapsible=0;dropTarget=0;pointerEvents=0;fillColor=none;top=0;left=0;bottom=1;right=0;points=[[0,0.5],[1,0.5]];portConstraint=eastwest;" parent="hT-J2cGNkWbNZqGw8i-Q-19" vertex="1"><mxGeometry y="30" width="200" height="30" as="geometry"/></mxCell><mxCell id="hT-J2cGNkWbNZqGw8i-Q-21" value="PK" style="shape=partialRectangle;connectable=0;fillColor=none;top=0;left=0;bottom=0;right=0;fontStyle=1;overflow=hidden;" parent="hT-J2cGNkWbNZqGw8i-Q-20" vertex="1"><mxGeometry width="30" height="30" as="geometry"/></mxCell><mxCell id="hT-J2cGNkWbNZqGw8i-Q-22" value="branch_id" style="shape=partialRectangle;connectable=0;fillColor=none;top=0;left=0;bottom=0;right=0;align=left;spacingLeft=6;fontStyle=5;overflow=hidden;" parent="hT-J2cGNkWbNZqGw8i-Q-20" vertex="1"><mxGeometry x="30" width="170" height="30" as="geometry"/></mxCell><mxCell id="hT-J2cGNkWbNZqGw8i-Q-23" value="" style="shape=partialRectangle;collapsible=0;dropTarget=0;pointerEvents=0;fillColor=none;top=0;left=0;bottom=0;right=0;points=[[0,0.5],[1,0.5]];portConstraint=eastwest;" parent="hT-J2cGNkWbNZqGw8i-Q-19" vertex="1"><mxGeometry y="60" width="200" height="30" as="geometry"/></mxCell><mxCell id="hT-J2cGNkWbNZqGw8i-Q-24" value="" style="shape=partialRectangle;connectable=0;fillColor=none;top=0;left=0;bottom=0;right=0;editable=1;overflow=hidden;" parent="hT-J2cGNkWbNZqGw8i-Q-23" vertex="1"><mxGeometry width="30" height="30" as="geometry"/></mxCell><mxCell id="hT-J2cGNkWbNZqGw8i-Q-25" value="name  varchar(50) NOT NULL" style="shape=partialRectangle;connectable=0;fillColor=none;top=0;left=0;bottom=0;right=0;align=left;spacingLeft=6;overflow=hidden;" parent="hT-J2cGNkWbNZqGw8i-Q-23" vertex="1"><mxGeometry x="30" width="170" height="30" as="geometry"/></mxCell><mxCell id="hT-J2cGNkWbNZqGw8i-Q-26" value="" style="shape=partialRectangle;collapsible=0;dropTarget=0;pointerEvents=0;fillColor=none;top=0;left=0;bottom=0;right=0;points=[[0,0.5],[1,0.5]];portConstraint=eastwest;" parent="hT-J2cGNkWbNZqGw8i-Q-19" vertex="1"><mxGeometry y="90" width="200" height="30" as="geometry"/></mxCell><mxCell id="hT-J2cGNkWbNZqGw8i-Q-27" value="" style="shape=partialRectangle;connectable=0;fillColor=none;top=0;left=0;bottom=0;right=0;editable=1;overflow=hidden;" parent="hT-J2cGNkWbNZqGw8i-Q-26" vertex="1"><mxGeometry width="30" height="30" as="geometry"/></mxCell><mxCell id="hT-J2cGNkWbNZqGw8i-Q-28" value="address_id int NOT NULL" style="shape=partialRectangle;connectable=0;fillColor=none;top=0;left=0;bottom=0;right=0;align=left;spacingLeft=6;overflow=hidden;" parent="hT-J2cGNkWbNZqGw8i-Q-26" vertex="1"><mxGeometry x="30" width="170" height="30" as="geometry"/></mxCell><mxCell id="hT-J2cGNkWbNZqGw8i-Q-29" value="" style="shape=partialRectangle;collapsible=0;dropTarget=0;pointerEvents=0;fillColor=none;top=0;left=0;bottom=0;right=0;points=[[0,0.5],[1,0.5]];portConstraint=eastwest;" parent="hT-J2cGNkWbNZqGw8i-Q-19" vertex="1"><mxGeometry y="120" width="200" height="30" as="geometry"/></mxCell><mxCell id="hT-J2cGNkWbNZqGw8i-Q-30" value="" style="shape=partialRectangle;connectable=0;fillColor=none;top=0;left=0;bottom=0;right=0;editable=1;overflow=hidden;" parent="hT-J2cGNkWbNZqGw8i-Q-29" vertex="1"><mxGeometry width="30" height="30" as="geometry"/></mxCell><mxCell id="hT-J2cGNkWbNZqGw8i-Q-31" value="" style="shape=partialRectangle;connectable=0;fillColor=none;top=0;left=0;bottom=0;right=0;align=left;spacingLeft=6;overflow=hidden;" parent="hT-J2cGNkWbNZqGw8i-Q-29" vertex="1"><mxGeometry x="30" width="170" height="30" as="geometry"/></mxCell><mxCell id="hT-J2cGNkWbNZqGw8i-Q-32" value="car" style="shape=table;startSize=30;container=1;collapsible=1;childLayout=tableLayout;fixedRows=1;rowLines=0;fontStyle=1;align=center;resizeLast=1;" parent="1" vertex="1"><mxGeometry x="840" y="10" width="230" height="160" as="geometry"/></mxCell><mxCell id="hT-J2cGNkWbNZqGw8i-Q-33" value="" style="shape=partialRectangle;collapsible=0;dropTarget=0;pointerEvents=0;fillColor=none;top=0;left=0;bottom=1;right=0;points=[[0,0.5],[1,0.5]];portConstraint=eastwest;" parent="hT-J2cGNkWbNZqGw8i-Q-32" vertex="1"><mxGeometry y="30" width="230" height="30" as="geometry"/></mxCell><mxCell id="hT-J2cGNkWbNZqGw8i-Q-34" value="PK" style="shape=partialRectangle;connectable=0;fillColor=none;top=0;left=0;bottom=0;right=0;fontStyle=1;overflow=hidden;" parent="hT-J2cGNkWbNZqGw8i-Q-33" vertex="1"><mxGeometry width="30" height="30" as="geometry"/></mxCell><mxCell id="hT-J2cGNkWbNZqGw8i-Q-35" value="car_id" style="shape=partialRectangle;connectable=0;fillColor=none;top=0;left=0;bottom=0;right=0;align=left;spacingLeft=6;fontStyle=5;overflow=hidden;" parent="hT-J2cGNkWbNZqGw8i-Q-33" vertex="1"><mxGeometry x="30" width="200" height="30" as="geometry"/></mxCell><mxCell id="hT-J2cGNkWbNZqGw8i-Q-36" value="" style="shape=partialRectangle;collapsible=0;dropTarget=0;pointerEvents=0;fillColor=none;top=0;left=0;bottom=0;right=0;points=[[0,0.5],[1,0.5]];portConstraint=eastwest;" parent="hT-J2cGNkWbNZqGw8i-Q-32" vertex="1"><mxGeometry y="60" width="230" height="30" as="geometry"/></mxCell><mxCell id="hT-J2cGNkWbNZqGw8i-Q-37" value="" style="shape=partialRectangle;connectable=0;fillColor=none;top=0;left=0;bottom=0;right=0;editable=1;overflow=hidden;" parent="hT-J2cGNkWbNZqGw8i-Q-36" vertex="1"><mxGeometry width="30" height="30" as="geometry"/></mxCell><mxCell id="hT-J2cGNkWbNZqGw8i-Q-38" value="name  varchar(50) NOT NULL" style="shape=partialRectangle;connectable=0;fillColor=none;top=0;left=0;bottom=0;right=0;align=left;spacingLeft=6;overflow=hidden;" parent="hT-J2cGNkWbNZqGw8i-Q-36" vertex="1"><mxGeometry x="30" width="200" height="30" as="geometry"/></mxCell><mxCell id="hT-J2cGNkWbNZqGw8i-Q-39" value="" style="shape=partialRectangle;collapsible=0;dropTarget=0;pointerEvents=0;fillColor=none;top=0;left=0;bottom=0;right=0;points=[[0,0.5],[1,0.5]];portConstraint=eastwest;" parent="hT-J2cGNkWbNZqGw8i-Q-32" vertex="1"><mxGeometry y="90" width="230" height="30" as="geometry"/></mxCell><mxCell id="hT-J2cGNkWbNZqGw8i-Q-40" value="U" style="shape=partialRectangle;connectable=0;fillColor=none;top=0;left=0;bottom=0;right=0;editable=1;overflow=hidden;" parent="hT-J2cGNkWbNZqGw8i-Q-39" vertex="1"><mxGeometry width="30" height="30" as="geometry"/></mxCell><mxCell id="hT-J2cGNkWbNZqGw8i-Q-41" value="number  varchar(25) NOT NULL" style="shape=partialRectangle;connectable=0;fillColor=none;top=0;left=0;bottom=0;right=0;align=left;spacingLeft=6;overflow=hidden;" parent="hT-J2cGNkWbNZqGw8i-Q-39" vertex="1"><mxGeometry x="30" width="200" height="30" as="geometry"/></mxCell><mxCell id="hT-J2cGNkWbNZqGw8i-Q-42" value="" style="shape=partialRectangle;collapsible=0;dropTarget=0;pointerEvents=0;fillColor=none;top=0;left=0;bottom=0;right=0;points=[[0,0.5],[1,0.5]];portConstraint=eastwest;" parent="hT-J2cGNkWbNZqGw8i-Q-32" vertex="1"><mxGeometry y="120" width="230" height="30" as="geometry"/></mxCell><mxCell id="hT-J2cGNkWbNZqGw8i-Q-43" value="" style="shape=partialRectangle;connectable=0;fillColor=none;top=0;left=0;bottom=0;right=0;editable=1;overflow=hidden;" parent="hT-J2cGNkWbNZqGw8i-Q-42" vertex="1"><mxGeometry width="30" height="30" as="geometry"/></mxCell><mxCell id="hT-J2cGNkWbNZqGw8i-Q-44" value="price decimal NOT NULL" style="shape=partialRectangle;connectable=0;fillColor=none;top=0;left=0;bottom=0;right=0;align=left;spacingLeft=6;overflow=hidden;" parent="hT-J2cGNkWbNZqGw8i-Q-42" vertex="1"><mxGeometry x="30" width="200" height="30" as="geometry"/></mxCell><mxCell id="hT-J2cGNkWbNZqGw8i-Q-45" value="address" style="shape=table;startSize=30;container=1;collapsible=1;childLayout=tableLayout;fixedRows=1;rowLines=0;fontStyle=1;align=center;resizeLast=1;" parent="1" vertex="1"><mxGeometry x="559" y="430" width="201" height="220" as="geometry"/></mxCell><mxCell id="hT-J2cGNkWbNZqGw8i-Q-46" value="" style="shape=partialRectangle;collapsible=0;dropTarget=0;pointerEvents=0;fillColor=none;top=0;left=0;bottom=1;right=0;points=[[0,0.5],[1,0.5]];portConstraint=eastwest;" parent="hT-J2cGNkWbNZqGw8i-Q-45" vertex="1"><mxGeometry y="30" width="201" height="30" as="geometry"/></mxCell><mxCell id="hT-J2cGNkWbNZqGw8i-Q-47" value="PK" style="shape=partialRectangle;connectable=0;fillColor=none;top=0;left=0;bottom=0;right=0;fontStyle=1;overflow=hidden;" parent="hT-J2cGNkWbNZqGw8i-Q-46" vertex="1"><mxGeometry width="30" height="30" as="geometry"/></mxCell><mxCell id="hT-J2cGNkWbNZqGw8i-Q-48" value="address_id" style="shape=partialRectangle;connectable=0;fillColor=none;top=0;left=0;bottom=0;right=0;align=left;spacingLeft=6;fontStyle=5;overflow=hidden;" parent="hT-J2cGNkWbNZqGw8i-Q-46" vertex="1"><mxGeometry x="30" width="171" height="30" as="geometry"/></mxCell><mxCell id="hT-J2cGNkWbNZqGw8i-Q-49" value="" style="shape=partialRectangle;collapsible=0;dropTarget=0;pointerEvents=0;fillColor=none;top=0;left=0;bottom=0;right=0;points=[[0,0.5],[1,0.5]];portConstraint=eastwest;" parent="hT-J2cGNkWbNZqGw8i-Q-45" vertex="1"><mxGeometry y="60" width="201" height="30" as="geometry"/></mxCell><mxCell id="hT-J2cGNkWbNZqGw8i-Q-50" value="" style="shape=partialRectangle;connectable=0;fillColor=none;top=0;left=0;bottom=0;right=0;editable=1;overflow=hidden;" parent="hT-J2cGNkWbNZqGw8i-Q-49" vertex="1"><mxGeometry width="30" height="30" as="geometry"/></mxCell><mxCell id="hT-J2cGNkWbNZqGw8i-Q-51" value="phone  varchar(25) " style="shape=partialRectangle;connectable=0;fillColor=none;top=0;left=0;bottom=0;right=0;align=left;spacingLeft=6;overflow=hidden;" parent="hT-J2cGNkWbNZqGw8i-Q-49" vertex="1"><mxGeometry x="30" width="171" height="30" as="geometry"/></mxCell><mxCell id="hT-J2cGNkWbNZqGw8i-Q-52" value="" style="shape=partialRectangle;collapsible=0;dropTarget=0;pointerEvents=0;fillColor=none;top=0;left=0;bottom=0;right=0;points=[[0,0.5],[1,0.5]];portConstraint=eastwest;" parent="hT-J2cGNkWbNZqGw8i-Q-45" vertex="1"><mxGeometry y="90" width="201" height="30" as="geometry"/></mxCell><mxCell id="hT-J2cGNkWbNZqGw8i-Q-53" value="FK" style="shape=partialRectangle;connectable=0;fillColor=none;top=0;left=0;bottom=0;right=0;editable=1;overflow=hidden;" parent="hT-J2cGNkWbNZqGw8i-Q-52" vertex="1"><mxGeometry width="30" height="30" as="geometry"/></mxCell><mxCell id="hT-J2cGNkWbNZqGw8i-Q-54" value="city_id int NOT NULL" style="shape=partialRectangle;connectable=0;fillColor=none;top=0;left=0;bottom=0;right=0;align=left;spacingLeft=6;overflow=hidden;" parent="hT-J2cGNkWbNZqGw8i-Q-52" vertex="1"><mxGeometry x="30" width="171" height="30" as="geometry"/></mxCell><mxCell id="hT-J2cGNkWbNZqGw8i-Q-55" value="" style="shape=partialRectangle;collapsible=0;dropTarget=0;pointerEvents=0;fillColor=none;top=0;left=0;bottom=0;right=0;points=[[0,0.5],[1,0.5]];portConstraint=eastwest;" parent="hT-J2cGNkWbNZqGw8i-Q-45" vertex="1"><mxGeometry y="120" width="201" height="40" as="geometry"/></mxCell><mxCell id="hT-J2cGNkWbNZqGw8i-Q-56" value="FK" style="shape=partialRectangle;connectable=0;fillColor=none;top=0;left=0;bottom=0;right=0;editable=1;overflow=hidden;" parent="hT-J2cGNkWbNZqGw8i-Q-55" vertex="1"><mxGeometry width="30" height="40" as="geometry"/></mxCell><mxCell id="hT-J2cGNkWbNZqGw8i-Q-57" value="house_id int NOT NULL" style="shape=partialRectangle;connectable=0;fillColor=none;top=0;left=0;bottom=0;right=0;align=left;spacingLeft=6;overflow=hidden;" parent="hT-J2cGNkWbNZqGw8i-Q-55" vertex="1"><mxGeometry x="30" width="171" height="40" as="geometry"/></mxCell><mxCell id="hT-J2cGNkWbNZqGw8i-Q-86" value="city" style="shape=table;startSize=30;container=1;collapsible=1;childLayout=tableLayout;fixedRows=1;rowLines=0;fontStyle=1;align=center;resizeLast=1;" parent="1" vertex="1"><mxGeometry x="40" y="490" width="210" height="160" as="geometry"/></mxCell><mxCell id="hT-J2cGNkWbNZqGw8i-Q-87" value="" style="shape=partialRectangle;collapsible=0;dropTarget=0;pointerEvents=0;fillColor=none;top=0;left=0;bottom=1;right=0;points=[[0,0.5],[1,0.5]];portConstraint=eastwest;" parent="hT-J2cGNkWbNZqGw8i-Q-86" vertex="1"><mxGeometry y="30" width="210" height="30" as="geometry"/></mxCell><mxCell id="hT-J2cGNkWbNZqGw8i-Q-88" value="PK" style="shape=partialRectangle;connectable=0;fillColor=none;top=0;left=0;bottom=0;right=0;fontStyle=1;overflow=hidden;" parent="hT-J2cGNkWbNZqGw8i-Q-87" vertex="1"><mxGeometry width="30" height="30" as="geometry"/></mxCell><mxCell id="hT-J2cGNkWbNZqGw8i-Q-89" value="city_id" style="shape=partialRectangle;connectable=0;fillColor=none;top=0;left=0;bottom=0;right=0;align=left;spacingLeft=6;fontStyle=5;overflow=hidden;" parent="hT-J2cGNkWbNZqGw8i-Q-87" vertex="1"><mxGeometry x="30" width="180" height="30" as="geometry"/></mxCell><mxCell id="hT-J2cGNkWbNZqGw8i-Q-90" value="" style="shape=partialRectangle;collapsible=0;dropTarget=0;pointerEvents=0;fillColor=none;top=0;left=0;bottom=0;right=0;points=[[0,0.5],[1,0.5]];portConstraint=eastwest;" parent="hT-J2cGNkWbNZqGw8i-Q-86" vertex="1"><mxGeometry y="60" width="210" height="30" as="geometry"/></mxCell><mxCell id="hT-J2cGNkWbNZqGw8i-Q-91" value="" style="shape=partialRectangle;connectable=0;fillColor=none;top=0;left=0;bottom=0;right=0;editable=1;overflow=hidden;" parent="hT-J2cGNkWbNZqGw8i-Q-90" vertex="1"><mxGeometry width="30" height="30" as="geometry"/></mxCell><mxCell id="hT-J2cGNkWbNZqGw8i-Q-92" value="name  varchar(50) NOT NULL" style="shape=partialRectangle;connectable=0;fillColor=none;top=0;left=0;bottom=0;right=0;align=left;spacingLeft=6;overflow=hidden;" parent="hT-J2cGNkWbNZqGw8i-Q-90" vertex="1"><mxGeometry x="30" width="180" height="30" as="geometry"/></mxCell><mxCell id="hT-J2cGNkWbNZqGw8i-Q-93" value="" style="shape=partialRectangle;collapsible=0;dropTarget=0;pointerEvents=0;fillColor=none;top=0;left=0;bottom=0;right=0;points=[[0,0.5],[1,0.5]];portConstraint=eastwest;" parent="hT-J2cGNkWbNZqGw8i-Q-86" vertex="1"><mxGeometry y="90" width="210" height="30" as="geometry"/></mxCell><mxCell id="hT-J2cGNkWbNZqGw8i-Q-94" value="" style="shape=partialRectangle;connectable=0;fillColor=none;top=0;left=0;bottom=0;right=0;editable=1;overflow=hidden;" parent="hT-J2cGNkWbNZqGw8i-Q-93" vertex="1"><mxGeometry width="30" height="30" as="geometry"/></mxCell><mxCell id="hT-J2cGNkWbNZqGw8i-Q-95" value="" style="shape=partialRectangle;connectable=0;fillColor=none;top=0;left=0;bottom=0;right=0;align=left;spacingLeft=6;overflow=hidden;" parent="hT-J2cGNkWbNZqGw8i-Q-93" vertex="1"><mxGeometry x="30" width="180" height="30" as="geometry"/></mxCell><mxCell id="hT-J2cGNkWbNZqGw8i-Q-96" value="" style="shape=partialRectangle;collapsible=0;dropTarget=0;pointerEvents=0;fillColor=none;top=0;left=0;bottom=0;right=0;points=[[0,0.5],[1,0.5]];portConstraint=eastwest;" parent="hT-J2cGNkWbNZqGw8i-Q-86" vertex="1"><mxGeometry y="120" width="210" height="30" as="geometry"/></mxCell><mxCell id="hT-J2cGNkWbNZqGw8i-Q-97" value="" style="shape=partialRectangle;connectable=0;fillColor=none;top=0;left=0;bottom=0;right=0;editable=1;overflow=hidden;" parent="hT-J2cGNkWbNZqGw8i-Q-96" vertex="1"><mxGeometry width="30" height="30" as="geometry"/></mxCell><mxCell id="hT-J2cGNkWbNZqGw8i-Q-98" value="" style="shape=partialRectangle;connectable=0;fillColor=none;top=0;left=0;bottom=0;right=0;align=left;spacingLeft=6;overflow=hidden;" parent="hT-J2cGNkWbNZqGw8i-Q-96" vertex="1"><mxGeometry x="30" width="180" height="30" as="geometry"/></mxCell><mxCell id="hT-J2cGNkWbNZqGw8i-Q-99" value="street" style="shape=table;startSize=30;container=1;collapsible=1;childLayout=tableLayout;fixedRows=1;rowLines=0;fontStyle=1;align=center;resizeLast=1;" parent="1" vertex="1"><mxGeometry x="320" y="680" width="180" height="160" as="geometry"/></mxCell><mxCell id="hT-J2cGNkWbNZqGw8i-Q-100" value="" style="shape=partialRectangle;collapsible=0;dropTarget=0;pointerEvents=0;fillColor=none;top=0;left=0;bottom=1;right=0;points=[[0,0.5],[1,0.5]];portConstraint=eastwest;" parent="hT-J2cGNkWbNZqGw8i-Q-99" vertex="1"><mxGeometry y="30" width="180" height="30" as="geometry"/></mxCell><mxCell id="hT-J2cGNkWbNZqGw8i-Q-101" value="PK" style="shape=partialRectangle;connectable=0;fillColor=none;top=0;left=0;bottom=0;right=0;fontStyle=1;overflow=hidden;" parent="hT-J2cGNkWbNZqGw8i-Q-100" vertex="1"><mxGeometry width="30" height="30" as="geometry"/></mxCell><mxCell id="hT-J2cGNkWbNZqGw8i-Q-102" value="street_id" style="shape=partialRectangle;connectable=0;fillColor=none;top=0;left=0;bottom=0;right=0;align=left;spacingLeft=6;fontStyle=5;overflow=hidden;" parent="hT-J2cGNkWbNZqGw8i-Q-100" vertex="1"><mxGeometry x="30" width="150" height="30" as="geometry"/></mxCell><mxCell id="hT-J2cGNkWbNZqGw8i-Q-103" value="" style="shape=partialRectangle;collapsible=0;dropTarget=0;pointerEvents=0;fillColor=none;top=0;left=0;bottom=0;right=0;points=[[0,0.5],[1,0.5]];portConstraint=eastwest;" parent="hT-J2cGNkWbNZqGw8i-Q-99" vertex="1"><mxGeometry y="60" width="180" height="30" as="geometry"/></mxCell><mxCell id="hT-J2cGNkWbNZqGw8i-Q-104" value="" style="shape=partialRectangle;connectable=0;fillColor=none;top=0;left=0;bottom=0;right=0;editable=1;overflow=hidden;" parent="hT-J2cGNkWbNZqGw8i-Q-103" vertex="1"><mxGeometry width="30" height="30" as="geometry"/></mxCell><mxCell id="hT-J2cGNkWbNZqGw8i-Q-105" value="name  varchar(50) " style="shape=partialRectangle;connectable=0;fillColor=none;top=0;left=0;bottom=0;right=0;align=left;spacingLeft=6;overflow=hidden;" parent="hT-J2cGNkWbNZqGw8i-Q-103" vertex="1"><mxGeometry x="30" width="150" height="30" as="geometry"/></mxCell><mxCell id="hT-J2cGNkWbNZqGw8i-Q-106" value="" style="shape=partialRectangle;collapsible=0;dropTarget=0;pointerEvents=0;fillColor=none;top=0;left=0;bottom=0;right=0;points=[[0,0.5],[1,0.5]];portConstraint=eastwest;" parent="hT-J2cGNkWbNZqGw8i-Q-99" vertex="1"><mxGeometry y="90" width="180" height="30" as="geometry"/></mxCell><mxCell id="hT-J2cGNkWbNZqGw8i-Q-107" value="FK" style="shape=partialRectangle;connectable=0;fillColor=none;top=0;left=0;bottom=0;right=0;editable=1;overflow=hidden;" parent="hT-J2cGNkWbNZqGw8i-Q-106" vertex="1"><mxGeometry width="30" height="30" as="geometry"/></mxCell><mxCell id="hT-J2cGNkWbNZqGw8i-Q-108" value="city_id int NOT NULL" style="shape=partialRectangle;connectable=0;fillColor=none;top=0;left=0;bottom=0;right=0;align=left;spacingLeft=6;overflow=hidden;" parent="hT-J2cGNkWbNZqGw8i-Q-106" vertex="1"><mxGeometry x="30" width="150" height="30" as="geometry"/></mxCell><mxCell id="hT-J2cGNkWbNZqGw8i-Q-109" value="" style="shape=partialRectangle;collapsible=0;dropTarget=0;pointerEvents=0;fillColor=none;top=0;left=0;bottom=0;right=0;points=[[0,0.5],[1,0.5]];portConstraint=eastwest;" parent="hT-J2cGNkWbNZqGw8i-Q-99" vertex="1"><mxGeometry y="120" width="180" height="30" as="geometry"/></mxCell><mxCell id="hT-J2cGNkWbNZqGw8i-Q-110" value="" style="shape=partialRectangle;connectable=0;fillColor=none;top=0;left=0;bottom=0;right=0;editable=1;overflow=hidden;" parent="hT-J2cGNkWbNZqGw8i-Q-109" vertex="1"><mxGeometry width="30" height="30" as="geometry"/></mxCell><mxCell id="hT-J2cGNkWbNZqGw8i-Q-111" value="" style="shape=partialRectangle;connectable=0;fillColor=none;top=0;left=0;bottom=0;right=0;align=left;spacingLeft=6;overflow=hidden;" parent="hT-J2cGNkWbNZqGw8i-Q-109" vertex="1"><mxGeometry x="30" width="150" height="30" as="geometry"/></mxCell><mxCell id="hT-J2cGNkWbNZqGw8i-Q-118" value="" style="edgeStyle=entityRelationEdgeStyle;fontSize=12;html=1;endArrow=ERzeroToOne;startArrow=ERmandOne;entryX=0;entryY=0.5;entryDx=0;entryDy=0;endFill=1;" parent="1" source="hT-J2cGNkWbNZqGw8i-Q-11" target="hT-J2cGNkWbNZqGw8i-Q-46" edge="1"><mxGeometry width="100" height="100" relative="1" as="geometry"><mxPoint x="250" y="550" as="sourcePoint"/><mxPoint x="350" y="450" as="targetPoint"/></mxGeometry></mxCell><mxCell id="hT-J2cGNkWbNZqGw8i-Q-119" value="" style="edgeStyle=entityRelationEdgeStyle;fontSize=12;html=1;endArrow=ERoneToMany;entryX=0;entryY=0.5;entryDx=0;entryDy=0;exitX=1;exitY=0.5;exitDx=0;exitDy=0;startArrow=ERmandOne;startFill=0;" parent="1" source="hT-J2cGNkWbNZqGw8i-Q-90" target="hT-J2cGNkWbNZqGw8i-Q-106" edge="1"><mxGeometry width="100" height="100" relative="1" as="geometry"><mxPoint x="250" y="530" as="sourcePoint"/><mxPoint x="350" y="450" as="targetPoint"/></mxGeometry></mxCell><mxCell id="hT-J2cGNkWbNZqGw8i-Q-120" value="house" style="shape=table;startSize=30;container=1;collapsible=1;childLayout=tableLayout;fixedRows=1;rowLines=0;fontStyle=1;align=center;resizeLast=1;" parent="1" vertex="1"><mxGeometry x="820" y="660" width="190" height="160" as="geometry"/></mxCell><mxCell id="hT-J2cGNkWbNZqGw8i-Q-121" value="" style="shape=partialRectangle;collapsible=0;dropTarget=0;pointerEvents=0;fillColor=none;top=0;left=0;bottom=1;right=0;points=[[0,0.5],[1,0.5]];portConstraint=eastwest;" parent="hT-J2cGNkWbNZqGw8i-Q-120" vertex="1"><mxGeometry y="30" width="190" height="30" as="geometry"/></mxCell><mxCell id="hT-J2cGNkWbNZqGw8i-Q-122" value="PK" style="shape=partialRectangle;connectable=0;fillColor=none;top=0;left=0;bottom=0;right=0;fontStyle=1;overflow=hidden;" parent="hT-J2cGNkWbNZqGw8i-Q-121" vertex="1"><mxGeometry width="30" height="30" as="geometry"/></mxCell><mxCell id="hT-J2cGNkWbNZqGw8i-Q-123" value="house_id" style="shape=partialRectangle;connectable=0;fillColor=none;top=0;left=0;bottom=0;right=0;align=left;spacingLeft=6;fontStyle=5;overflow=hidden;" parent="hT-J2cGNkWbNZqGw8i-Q-121" vertex="1"><mxGeometry x="30" width="160" height="30" as="geometry"/></mxCell><mxCell id="hT-J2cGNkWbNZqGw8i-Q-124" value="" style="shape=partialRectangle;collapsible=0;dropTarget=0;pointerEvents=0;fillColor=none;top=0;left=0;bottom=0;right=0;points=[[0,0.5],[1,0.5]];portConstraint=eastwest;" parent="hT-J2cGNkWbNZqGw8i-Q-120" vertex="1"><mxGeometry y="60" width="190" height="30" as="geometry"/></mxCell><mxCell id="hT-J2cGNkWbNZqGw8i-Q-125" value="" style="shape=partialRectangle;connectable=0;fillColor=none;top=0;left=0;bottom=0;right=0;editable=1;overflow=hidden;" parent="hT-J2cGNkWbNZqGw8i-Q-124" vertex="1"><mxGeometry width="30" height="30" as="geometry"/></mxCell><mxCell id="hT-J2cGNkWbNZqGw8i-Q-126" value="number  varchar(50)" style="shape=partialRectangle;connectable=0;fillColor=none;top=0;left=0;bottom=0;right=0;align=left;spacingLeft=6;overflow=hidden;" parent="hT-J2cGNkWbNZqGw8i-Q-124" vertex="1"><mxGeometry x="30" width="160" height="30" as="geometry"/></mxCell><mxCell id="hT-J2cGNkWbNZqGw8i-Q-127" value="" style="shape=partialRectangle;collapsible=0;dropTarget=0;pointerEvents=0;fillColor=none;top=0;left=0;bottom=0;right=0;points=[[0,0.5],[1,0.5]];portConstraint=eastwest;" parent="hT-J2cGNkWbNZqGw8i-Q-120" vertex="1"><mxGeometry y="90" width="190" height="30" as="geometry"/></mxCell><mxCell id="hT-J2cGNkWbNZqGw8i-Q-128" value="FK" style="shape=partialRectangle;connectable=0;fillColor=none;top=0;left=0;bottom=0;right=0;editable=1;overflow=hidden;" parent="hT-J2cGNkWbNZqGw8i-Q-127" vertex="1"><mxGeometry width="30" height="30" as="geometry"/></mxCell><mxCell id="hT-J2cGNkWbNZqGw8i-Q-129" value="street_id int NOT NULL" style="shape=partialRectangle;connectable=0;fillColor=none;top=0;left=0;bottom=0;right=0;align=left;spacingLeft=6;overflow=hidden;" parent="hT-J2cGNkWbNZqGw8i-Q-127" vertex="1"><mxGeometry x="30" width="160" height="30" as="geometry"/></mxCell><mxCell id="hT-J2cGNkWbNZqGw8i-Q-130" value="" style="shape=partialRectangle;collapsible=0;dropTarget=0;pointerEvents=0;fillColor=none;top=0;left=0;bottom=0;right=0;points=[[0,0.5],[1,0.5]];portConstraint=eastwest;" parent="hT-J2cGNkWbNZqGw8i-Q-120" vertex="1"><mxGeometry y="120" width="190" height="30" as="geometry"/></mxCell><mxCell id="hT-J2cGNkWbNZqGw8i-Q-131" value="" style="shape=partialRectangle;connectable=0;fillColor=none;top=0;left=0;bottom=0;right=0;editable=1;overflow=hidden;" parent="hT-J2cGNkWbNZqGw8i-Q-130" vertex="1"><mxGeometry width="30" height="30" as="geometry"/></mxCell><mxCell id="hT-J2cGNkWbNZqGw8i-Q-132" value="" style="shape=partialRectangle;connectable=0;fillColor=none;top=0;left=0;bottom=0;right=0;align=left;spacingLeft=6;overflow=hidden;" parent="hT-J2cGNkWbNZqGw8i-Q-130" vertex="1"><mxGeometry x="30" width="160" height="30" as="geometry"/></mxCell><mxCell id="hT-J2cGNkWbNZqGw8i-Q-133" value="" style="edgeStyle=entityRelationEdgeStyle;fontSize=12;html=1;endArrow=ERzeroToMany;entryX=0;entryY=0.5;entryDx=0;entryDy=0;startArrow=ERmandOne;startFill=0;endFill=1;" parent="1" source="hT-J2cGNkWbNZqGw8i-Q-99" target="hT-J2cGNkWbNZqGw8i-Q-127" edge="1"><mxGeometry width="100" height="100" relative="1" as="geometry"><mxPoint x="250" y="550" as="sourcePoint"/><mxPoint x="350" y="450" as="targetPoint"/></mxGeometry></mxCell><mxCell id="hT-J2cGNkWbNZqGw8i-Q-135" value="" style="edgeStyle=entityRelationEdgeStyle;fontSize=12;html=1;endArrow=ERzeroToMany;exitX=1;exitY=0.5;exitDx=0;exitDy=0;startArrow=ERmandOne;startFill=0;endFill=1;" parent="1" source="hT-J2cGNkWbNZqGw8i-Q-100" edge="1"><mxGeometry width="100" height="100" relative="1" as="geometry"><mxPoint x="250" y="550" as="sourcePoint"/><mxPoint x="559" y="620" as="targetPoint"/></mxGeometry></mxCell><mxCell id="hT-J2cGNkWbNZqGw8i-Q-137" value="" style="edgeStyle=entityRelationEdgeStyle;fontSize=12;html=1;endArrow=ERzeroToMany;endFill=1;entryX=1;entryY=0.5;entryDx=0;entryDy=0;exitX=0;exitY=0.5;exitDx=0;exitDy=0;startArrow=ERmandOne;startFill=0;" parent="1" source="hT-J2cGNkWbNZqGw8i-Q-121" target="hT-J2cGNkWbNZqGw8i-Q-55" edge="1"><mxGeometry width="100" height="100" relative="1" as="geometry"><mxPoint x="250" y="550" as="sourcePoint"/><mxPoint x="350" y="450" as="targetPoint"/></mxGeometry></mxCell><mxCell id="hT-J2cGNkWbNZqGw8i-Q-139" value="street_id int NOT NULL" style="shape=partialRectangle;connectable=0;fillColor=none;top=0;left=0;bottom=0;right=0;align=left;spacingLeft=6;overflow=hidden;" parent="1" vertex="1"><mxGeometry x="589" y="590" width="171" height="40" as="geometry"/></mxCell><mxCell id="hT-J2cGNkWbNZqGw8i-Q-143" value="" style="edgeStyle=entityRelationEdgeStyle;fontSize=12;html=1;endArrow=ERmandOne;startArrow=ERzeroToMany;entryX=0;entryY=0.5;entryDx=0;entryDy=0;exitX=1;exitY=0.5;exitDx=0;exitDy=0;startFill=1;" parent="1" source="hT-J2cGNkWbNZqGw8i-Q-62" target="hT-J2cGNkWbNZqGw8i-Q-33" edge="1"><mxGeometry width="100" height="100" relative="1" as="geometry"><mxPoint x="250" y="380" as="sourcePoint"/><mxPoint x="350" y="280" as="targetPoint"/></mxGeometry></mxCell><mxCell id="hT-J2cGNkWbNZqGw8i-Q-151" value="" style="edgeStyle=entityRelationEdgeStyle;fontSize=12;html=1;endArrow=ERmandOne;entryX=0;entryY=0.5;entryDx=0;entryDy=0;endFill=0;startArrow=ERzeroToMany;startFill=1;exitX=1;exitY=0.75;exitDx=0;exitDy=0;" parent="1" source="hT-J2cGNkWbNZqGw8i-Q-58" target="hT-J2cGNkWbNZqGw8i-Q-20" edge="1"><mxGeometry width="100" height="100" relative="1" as="geometry"><mxPoint x="550" y="260" as="sourcePoint"/><mxPoint x="700" y="280" as="targetPoint"/></mxGeometry></mxCell><mxCell id="hT-J2cGNkWbNZqGw8i-Q-152" style="edgeStyle=entityRelationEdgeStyle;rounded=0;orthogonalLoop=1;jettySize=auto;html=1;exitX=1;exitY=0.5;exitDx=0;exitDy=0;entryX=0;entryY=0.5;entryDx=0;entryDy=0;startArrow=ERmandOne;startFill=0;endArrow=ERzeroToMany;endFill=1;strokeColor=#000000;" parent="1" source="hT-J2cGNkWbNZqGw8i-Q-2" target="hT-J2cGNkWbNZqGw8i-Q-65" edge="1"><mxGeometry relative="1" as="geometry"/></mxCell><mxCell id="hT-J2cGNkWbNZqGw8i-Q-154" value="FK" style="shape=partialRectangle;connectable=0;fillColor=none;top=0;left=0;bottom=0;right=0;editable=1;overflow=hidden;" parent="1" vertex="1"><mxGeometry x="840" y="410" width="30" height="30" as="geometry"/></mxCell><mxCell id="hT-J2cGNkWbNZqGw8i-Q-155" value="FK" style="shape=partialRectangle;connectable=0;fillColor=none;top=0;left=0;bottom=0;right=0;editable=1;overflow=hidden;" parent="1" vertex="1"><mxGeometry x="559" y="592" width="30" height="40" as="geometry"/></mxCell><mxCell id="hT-J2cGNkWbNZqGw8i-Q-156" value="" style="edgeStyle=entityRelationEdgeStyle;fontSize=12;html=1;endArrow=ERzeroToMany;strokeColor=#000000;entryX=0;entryY=0.5;entryDx=0;entryDy=0;exitX=1;exitY=0.5;exitDx=0;exitDy=0;startArrow=ERmandOne;startFill=0;endFill=1;" parent="1" source="hT-J2cGNkWbNZqGw8i-Q-87" target="hT-J2cGNkWbNZqGw8i-Q-52" edge="1"><mxGeometry width="100" height="100" relative="1" as="geometry"><mxPoint x="380" y="670" as="sourcePoint"/><mxPoint x="480" y="570" as="targetPoint"/></mxGeometry></mxCell><mxCell id="hT-J2cGNkWbNZqGw8i-Q-157" value="" style="group" parent="1" vertex="1" connectable="0"><mxGeometry x="360" y="80" width="210" height="250" as="geometry"/></mxCell><mxCell id="hT-J2cGNkWbNZqGw8i-Q-58" value="renting" style="shape=table;startSize=30;container=1;collapsible=1;childLayout=tableLayout;fixedRows=1;rowLines=0;fontStyle=1;align=center;resizeLast=1;" parent="hT-J2cGNkWbNZqGw8i-Q-157" vertex="1"><mxGeometry width="210" height="250" as="geometry"/></mxCell><mxCell id="hT-J2cGNkWbNZqGw8i-Q-59" value="" style="shape=partialRectangle;collapsible=0;dropTarget=0;pointerEvents=0;fillColor=none;top=0;left=0;bottom=1;right=0;points=[[0,0.5],[1,0.5]];portConstraint=eastwest;" parent="hT-J2cGNkWbNZqGw8i-Q-58" vertex="1"><mxGeometry y="30" width="210" height="30" as="geometry"/></mxCell><mxCell id="hT-J2cGNkWbNZqGw8i-Q-60" value="PK" style="shape=partialRectangle;connectable=0;fillColor=none;top=0;left=0;bottom=0;right=0;fontStyle=1;overflow=hidden;" parent="hT-J2cGNkWbNZqGw8i-Q-59" vertex="1"><mxGeometry width="30" height="30" as="geometry"/></mxCell><mxCell id="hT-J2cGNkWbNZqGw8i-Q-61" value="renring_id" style="shape=partialRectangle;connectable=0;fillColor=none;top=0;left=0;bottom=0;right=0;align=left;spacingLeft=6;fontStyle=5;overflow=hidden;" parent="hT-J2cGNkWbNZqGw8i-Q-59" vertex="1"><mxGeometry x="30" width="180" height="30" as="geometry"/></mxCell><mxCell id="hT-J2cGNkWbNZqGw8i-Q-62" value="" style="shape=partialRectangle;collapsible=0;dropTarget=0;pointerEvents=0;fillColor=none;top=0;left=0;bottom=0;right=0;points=[[0,0.5],[1,0.5]];portConstraint=eastwest;" parent="hT-J2cGNkWbNZqGw8i-Q-58" vertex="1"><mxGeometry y="60" width="210" height="30" as="geometry"/></mxCell><mxCell id="hT-J2cGNkWbNZqGw8i-Q-63" value="FK" style="shape=partialRectangle;connectable=0;fillColor=none;top=0;left=0;bottom=0;right=0;editable=1;overflow=hidden;" parent="hT-J2cGNkWbNZqGw8i-Q-62" vertex="1"><mxGeometry width="30" height="30" as="geometry"/></mxCell><mxCell id="hT-J2cGNkWbNZqGw8i-Q-64" value="car_id int NOT NULL" style="shape=partialRectangle;connectable=0;fillColor=none;top=0;left=0;bottom=0;right=0;align=left;spacingLeft=6;overflow=hidden;" parent="hT-J2cGNkWbNZqGw8i-Q-62" vertex="1"><mxGeometry x="30" width="180" height="30" as="geometry"/></mxCell><mxCell id="hT-J2cGNkWbNZqGw8i-Q-65" value="" style="shape=partialRectangle;collapsible=0;dropTarget=0;pointerEvents=0;fillColor=none;top=0;left=0;bottom=0;right=0;points=[[0,0.5],[1,0.5]];portConstraint=eastwest;" parent="hT-J2cGNkWbNZqGw8i-Q-58" vertex="1"><mxGeometry y="90" width="210" height="30" as="geometry"/></mxCell><mxCell id="hT-J2cGNkWbNZqGw8i-Q-66" value="FK" style="shape=partialRectangle;connectable=0;fillColor=none;top=0;left=0;bottom=0;right=0;editable=1;overflow=hidden;" parent="hT-J2cGNkWbNZqGw8i-Q-65" vertex="1"><mxGeometry width="30" height="30" as="geometry"/></mxCell><mxCell id="hT-J2cGNkWbNZqGw8i-Q-67" value="customer_id int" style="shape=partialRectangle;connectable=0;fillColor=none;top=0;left=0;bottom=0;right=0;align=left;spacingLeft=6;overflow=hidden;" parent="hT-J2cGNkWbNZqGw8i-Q-65" vertex="1"><mxGeometry x="30" width="180" height="30" as="geometry"/></mxCell><mxCell id="hT-J2cGNkWbNZqGw8i-Q-68" value="" style="shape=partialRectangle;collapsible=0;dropTarget=0;pointerEvents=0;fillColor=none;top=0;left=0;bottom=0;right=0;points=[[0,0.5],[1,0.5]];portConstraint=eastwest;" parent="hT-J2cGNkWbNZqGw8i-Q-58" vertex="1"><mxGeometry y="120" width="210" height="40" as="geometry"/></mxCell><mxCell id="hT-J2cGNkWbNZqGw8i-Q-69" value="" style="shape=partialRectangle;connectable=0;fillColor=none;top=0;left=0;bottom=0;right=0;editable=1;overflow=hidden;" parent="hT-J2cGNkWbNZqGw8i-Q-68" vertex="1"><mxGeometry width="30" height="40" as="geometry"/></mxCell><mxCell id="hT-J2cGNkWbNZqGw8i-Q-70" value="renting_date date NOT NULL" style="shape=partialRectangle;connectable=0;fillColor=none;top=0;left=0;bottom=0;right=0;align=left;spacingLeft=6;overflow=hidden;" parent="hT-J2cGNkWbNZqGw8i-Q-68" vertex="1"><mxGeometry x="30" width="180" height="40" as="geometry"/></mxCell><mxCell id="hT-J2cGNkWbNZqGw8i-Q-141" value="period timedelta" style="shape=partialRectangle;connectable=0;fillColor=none;top=0;left=0;bottom=0;right=0;align=left;spacingLeft=6;overflow=hidden;" parent="hT-J2cGNkWbNZqGw8i-Q-157" vertex="1"><mxGeometry x="30" y="148" width="150" height="40" as="geometry"/></mxCell><mxCell id="hT-J2cGNkWbNZqGw8i-Q-142" value="branch_id int NOT NULL" style="shape=partialRectangle;connectable=0;fillColor=none;top=0;left=0;bottom=0;right=0;align=left;spacingLeft=6;overflow=hidden;" parent="hT-J2cGNkWbNZqGw8i-Q-157" vertex="1"><mxGeometry x="30" y="180" width="170" height="40" as="geometry"/></mxCell><mxCell id="hT-J2cGNkWbNZqGw8i-Q-153" value="FK" style="shape=partialRectangle;connectable=0;fillColor=none;top=0;left=0;bottom=0;right=0;editable=1;overflow=hidden;" parent="hT-J2cGNkWbNZqGw8i-Q-157" vertex="1"><mxGeometry x="2" y="185" width="30" height="30" as="geometry"/></mxCell><mxCell id="hT-J2cGNkWbNZqGw8i-Q-160" value="" style="edgeStyle=entityRelationEdgeStyle;fontSize=12;html=1;endArrow=ERmandOne;startArrow=ERzeroToOne;strokeColor=#000000;entryX=0;entryY=0.5;entryDx=0;entryDy=0;startFill=1;" parent="1" source="hT-J2cGNkWbNZqGw8i-Q-46" target="hT-J2cGNkWbNZqGw8i-Q-26" edge="1"><mxGeometry width="100" height="100" relative="1" as="geometry"><mxPoint x="490" y="520" as="sourcePoint"/><mxPoint x="840" y="460" as="targetPoint"/></mxGeometry></mxCell></root></mxGraphModel></diagram></mxfile>